<svg height="121.628" viewBox="0 0 364 121.628" width="364" xmlns="http://www.w3.org/2000/svg"><g fill="#e64d16"><path d="m56.2 323.68h-14.7v-13.8h14.7zm-14.159 7.714h13.709v41.934h-13.706z" transform="translate(89.219 -297.895)"/><path d="m113.579 355.433c0 13.071-10.165 17.881-21.6 17.881h-27.231v-63.535h26.321c11.164 0 19.605 4.72 19.605 15.793 0 7.351-3.449 11.89-10.075 14.069v.182c7.171 1.177 12.98 5.077 12.98 15.61zm-34.762-32.856v12.435h10.528c4.266 0 7.171-2.36 7.171-6.354 0-3.9-3-6.081-7.08-6.081zm20.15 31.041c0-4.629-3.449-6.9-9.167-6.9h-10.983v13.8h11.073c5.355-.002 9.076-2.271 9.076-6.9z" transform="translate(86.283 -297.882)"/><path d="m122.166 355.274c0-14.7 8.985-22.329 19.877-22.329 6.808 0 11.073 2.813 13.706 7.08h.181v-5.718h13.706v41.933h-13.706v-5.718h-.181c-2.632 4.265-6.9 7.08-13.706 7.08-10.892-.002-19.877-7.626-19.877-22.328zm33.4 0c0-5.991-4.175-9.8-9.712-9.8-5.446 0-9.62 3.812-9.62 9.8s4.175 9.8 9.62 9.8c5.538.002 9.713-3.81 9.713-9.8z" transform="translate(79.032 -300.808)"/><path d="m207.795 346.754h-1.18c-9.167 0-12.888 3.359-12.888 14.069v15.43h-13.706v-41.934h13.432v8.533h.182c2.451-6.9 7.261-9.8 13.887-9.8h.273z" transform="translate(71.725 -300.821)"/><path d="m243.519 346.754h-1.18c-9.168 0-12.889 3.359-12.889 14.069v15.43h-13.705v-41.934h13.433v8.533h.181c2.451-6.9 7.261-9.8 13.888-9.8h.272z" transform="translate(67.214 -300.821)"/><path d="m301.284 334.5-27.864 60.089h-13.8l10.528-22.146-18.784-37.943h15.793l9.8 23.145 10.443-23.145z" transform="translate(62.716 -301.004)"/><path d="m84.578 161.518c-20.445 1.96-39.1-14.218-40.259-34.449-.109-1.9-.232-3.8-.355-5.7a9.624 9.624 0 0 1 7.126-10.265q.391-.116.785-.221c5.559-1.481 7.173-.6 8.733 4.981 1.071 3.828 1.156 7.777-1.61 10.841-6.6 7.31-3.4 17.461 2.255 22.662 6.344 5.833 13.957 9.319 22.1 11.794.408.126.817.239 1.225.357z" transform="translate(-43.939 -79.253)"/><path d="m86.147 79.847c-4.947-8.011 1.653-16.888 10.48-20.43-4.585 4.377-6.667 9.928-7.947 15.937-.313 1.473-1.522 2.755-2.533 4.493z" transform="translate(-64.685 -53.225)"/><path d="m180.324 83.009a113.655 113.655 0 0 0 -21.568-23.609c-6.646-5.436-13.75-10.083-22.3-11.977-11.109-2.46-21.622 1.736-26.9 10.692-6.016 10.2-4.947 20.88 2.978 29.843 1.5 1.7 3.043 3.362 4.457 5.13a18.731 18.731 0 0 1 4.2 11.528c.211 8.086 3.865 12.272 11.821 14.344 6.723 1.751 12.779-1.3 12.107-9.508a50.137 50.137 0 0 1 4.51-25.408 16.633 16.633 0 0 0 .674-11.967c-1.19-3.989-2.556-7.926-3.909-11.864-.615-1.791-.429-3.316 1.394-4.119 1.844-.812 3.227.071 3.92 1.811 1.139 2.858 2.154 5.768 3.176 8.672 2.673 7.592 2.655 15.029-.872 22.448a31.362 31.362 0 0 0 -2.971 16.7c0 3.15-.177 5.523.037 7.861a11.562 11.562 0 0 0 6.838 10.056c3.963 1.857 6.918-.422 9.484-2.858a167.426 167.426 0 0 0 11.682-12.117 20.764 20.764 0 0 0 1.242-25.658zm-61.889-9.074a4.7 4.7 0 1 1 -.309-9.4 4.7 4.7 0 0 1 .309 9.4z" transform="translate(-75.563 -46.726)"/><path d="m146.323 278.327a8.062 8.062 0 0 1 -2.717-1.8 7.533 7.533 0 0 1 -1.654-2.582 8.372 8.372 0 0 1 -.561-3.027 8.109 8.109 0 0 1 .677-3.375 7.733 7.733 0 0 1 1.827-2.552 8.019 8.019 0 0 1 2.669-1.615 9.154 9.154 0 0 1 3.2-.561 10.318 10.318 0 0 1 3.22.484 7.4 7.4 0 0 1 2.543 1.393 6.365 6.365 0 0 1 1.663 2.214 6.988 6.988 0 0 1 .6 2.949 10.639 10.639 0 0 1 -.281 2.63 5.057 5.057 0 0 1 -.783 1.76 2.99 2.99 0 0 1 -1.209.986 3.833 3.833 0 0 1 -1.557.309 2.9 2.9 0 0 1 -1.847-.57 3.012 3.012 0 0 1 -1.015-1.421 1.957 1.957 0 0 1 -.377.484 2.706 2.706 0 0 1 -.551.406 3.254 3.254 0 0 1 -.667.28 2.535 2.535 0 0 1 -.725.106 3.758 3.758 0 0 1 -1.518-.3 3.607 3.607 0 0 1 -1.189-.831 3.827 3.827 0 0 1 -.783-1.248 4.139 4.139 0 0 1 -.281-1.528 4.079 4.079 0 0 1 .29-1.547 3.969 3.969 0 0 1 .793-1.248 3.61 3.61 0 0 1 1.19-.831 3.709 3.709 0 0 1 1.5-.3 2.769 2.769 0 0 1 .725.1 2.893 2.893 0 0 1 .667.271 2.7 2.7 0 0 1 .551.406 1.967 1.967 0 0 1 .377.484v-1.083h2.244v4.564a3.029 3.029 0 0 0 .242 1.412.815.815 0 0 0 .764.426.754.754 0 0 0 .474-.174 1.379 1.379 0 0 0 .387-.6 5.2 5.2 0 0 0 .261-1.151 14.448 14.448 0 0 0 .1-1.847 4.886 4.886 0 0 0 -.425-2.079 4.419 4.419 0 0 0 -1.189-1.557 5.459 5.459 0 0 0 -1.837-.987 7.591 7.591 0 0 0 -2.349-.348 6.918 6.918 0 0 0 -2.388.406 5.709 5.709 0 0 0 -1.953 1.19 5.573 5.573 0 0 0 -1.325 1.914 6.873 6.873 0 0 0 -.087 4.835 5.671 5.671 0 0 0 1.2 1.953 5.78 5.78 0 0 0 2.021 1.373 7.343 7.343 0 0 0 2.862.513 10.769 10.769 0 0 0 1.808-.184 7.014 7.014 0 0 0 2.079-.725l.832 1.721a8.471 8.471 0 0 1 -1.257.58 8.764 8.764 0 0 1 -1.257.358q-.618.126-1.179.184a10.062 10.062 0 0 1 -1.025.058 9.752 9.752 0 0 1 -3.78-.678zm3.664-5.57a1.727 1.727 0 0 0 .609-.435 2.018 2.018 0 0 0 .386-.638 2.142 2.142 0 0 0 .136-.764 2.071 2.071 0 0 0 -.522-1.421 1.768 1.768 0 0 0 -1.393-.589 1.666 1.666 0 0 0 -1.335.589 2.12 2.12 0 0 0 -.5 1.421 2.094 2.094 0 0 0 .5 1.4 1.666 1.666 0 0 0 1.335.589 1.945 1.945 0 0 0 .785-.152z" transform="translate(-93.84 -157.376)"/><path d="m183.947 210.9c.076.07 2.926 1.033 2.526 3.767a3.591 3.591 0 0 1 -1.747 2.4c-5.231 3.805-18.068 4.208-23.755 3.836-1.72-.112-3.719-.1-4.821 2.085-1.218 2.412-.508 6.272.987 8.15s3.49 2.28 5.385 2.523c2.936.377 12.037-.44 14.994-1.3 3.111-.906 6.29-2.247 8.561-4.808a7.679 7.679 0 0 0 1.482-2.107 9.71 9.71 0 0 0 .571-2.407 19.958 19.958 0 0 0 -.011-4.176 33.738 33.738 0 0 0 -.624-4.555 4.308 4.308 0 0 0 -2.416-3.04z" transform="translate(-101.079 -130.791)"/><path d="m137.967 233.5a9.475 9.475 0 0 1 -.9-8.151 3.234 3.234 0 0 1 2.475-2.031c-.39-.018-.816.045-1.165 0a32.7 32.7 0 0 1 -7.3-1.6 2.615 2.615 0 0 1 -1.135-.718 3.135 3.135 0 0 1 -.552-1.422 8.725 8.725 0 0 1 .195-3.921l-.212.037a12.789 12.789 0 0 0 -.612 3.913c.169 2.454.205 3.6.321 5.475a8.958 8.958 0 0 0 1.731 5.1 11.262 11.262 0 0 0 3.079 2.373 17.732 17.732 0 0 0 5.373 2.267 5.618 5.618 0 0 1 -1.298-1.322z" transform="translate(-87.374 -133.223)"/></g></svg>